<?xml version="1.0" encoding="UTF-8" standalone="no"?>
<svg
   xmlns:dc="http://purl.org/dc/elements/1.1/"
   xmlns:cc="http://creativecommons.org/ns#"
   xmlns:rdf="http://www.w3.org/1999/02/22-rdf-syntax-ns#"
   xmlns:svg="http://www.w3.org/2000/svg"
   xmlns="http://www.w3.org/2000/svg"
   xmlns:sodipodi="http://sodipodi.sourceforge.net/DTD/sodipodi-0.dtd"
   xmlns:inkscape="http://www.inkscape.org/namespaces/inkscape"
   version="1.1"
   id="svg2"
   xml:space="preserve"
   width="425.32001"
   height="60.706669"
   viewBox="0 0 425.32001 60.706669"
   sodipodi:docname="Civ Days_horz.eps"><metadata
     id="metadata8"><rdf:RDF><cc:Work
         rdf:about=""><dc:format>image/svg+xml</dc:format><dc:type
           rdf:resource="http://purl.org/dc/dcmitype/StillImage" /></cc:Work></rdf:RDF></metadata><defs
     id="defs6" /><sodipodi:namedview
     pagecolor="#ffffff"
     bordercolor="#666666"
     borderopacity="1"
     objecttolerance="10"
     gridtolerance="10"
     guidetolerance="10"
     inkscape:pageopacity="0"
     inkscape:pageshadow="2"
     inkscape:window-width="640"
     inkscape:window-height="480"
     id="namedview4" /><g
     id="g10"
     inkscape:groupmode="layer"
     inkscape:label="ink_ext_XXXXXX"
     transform="matrix(1.3333333,0,0,-1.3333333,0,60.706667)"><g
       id="g12"
       transform="scale(0.1)"><path
         d="m 1460.37,0 -135.21,282.867 -46.5,-100.66 H 2.05078 v 13.856 H 1269.79 l 55.16,119.39 134.36,-281.0975 65.93,163.0355 h 1148.72 l 54.35,113.293 111.92,-271.6801 57.8,157.0591 h 291.89 V 182.207 H 2907.7 L 2840.95,0.847656 2727.35,276.633 2682.68,183.523 H 1534.59 L 1460.37,0"
         style="fill:#4498a7;fill-opacity:1;fill-rule:nonzero;stroke:none"
         id="path14" /><path
         d="m 131.988,340.648 v -23.085 c -15.386,-8.391 -33.1482,-12.586 -53.3005,-12.586 -16.3633,0 -30.25,3.285 -41.6523,9.863 C 25.6367,321.41 16.6094,330.469 9.96484,342.012 3.32422,353.555 0,366.035 0,379.461 c 0,21.34 7.60547,39.277 22.8164,53.824 15.2188,14.551 33.9805,21.828 56.293,21.828 15.3867,0 32.4926,-4.023 51.3046,-12.062 v -22.559 c -17.137,9.789 -33.8906,14.684 -50.2577,14.684 -16.7891,0 -30.7227,-5.293 -41.8086,-15.895 -11.0821,-10.59 -16.6289,-23.867 -16.6289,-39.82 0,-16.082 5.457,-29.305 16.371,-39.652 C 49,329.457 62.9531,324.277 79.9531,324.277 c 17.7617,0 35.1099,5.453 52.0349,16.371"
         style="fill:#231f20;fill-opacity:1;fill-rule:nonzero;stroke:none"
         id="path16" /><path
         d="m 240.082,453.223 h 20.992 V 306.656 h -20.992 v 146.567"
         style="fill:#231f20;fill-opacity:1;fill-rule:nonzero;stroke:none"
         id="path18" /><path
         d="m 468.512,453.223 h 20.898 l -61.969,-147.2 h -4.753 l -63.168,147.2 h 21.125 l 44.082,-102.926 43.785,102.926"
         style="fill:#231f20;fill-opacity:1;fill-rule:nonzero;stroke:none"
         id="path20" /><path
         d="m 587.75,453.223 h 20.98 V 306.656 h -20.98 v 146.567"
         style="fill:#231f20;fill-opacity:1;fill-rule:nonzero;stroke:none"
         id="path22" /><path
         d="M 723.344,453.223 H 744.32 V 325.754 h 66 v -19.098 h -86.976 v 146.567"
         style="fill:#231f20;fill-opacity:1;fill-rule:nonzero;stroke:none"
         id="path24" /><path
         d="m 910.969,453.223 h 20.984 V 306.656 h -20.984 v 146.567"
         style="fill:#231f20;fill-opacity:1;fill-rule:nonzero;stroke:none"
         id="path26" /><path
         d="m 1039,453.438 h 126.33 l -93.65,-128.11 h 93.65 v -18.672 h -132.31 l 93.76,128.106 H 1039 v 18.676"
         style="fill:#231f20;fill-opacity:1;fill-rule:nonzero;stroke:none"
         id="path28" /><path
         d="m 1458.85,453.438 h 122.43 v -18.676 h -51.09 V 306.656 h -21.09 v 128.106 h -50.25 v 18.676"
         style="fill:#231f20;fill-opacity:1;fill-rule:nonzero;stroke:none"
         id="path30" /><path
         d="m 1683.41,453.223 h 20.99 V 306.656 h -20.99 v 146.567"
         style="fill:#231f20;fill-opacity:1;fill-rule:nonzero;stroke:none"
         id="path32" /><path
         d="m 1891.81,435.387 c -16.79,0 -30.58,-5.246 -41.39,-15.739 -10.81,-10.488 -16.21,-23.886 -16.21,-40.187 0,-15.805 5.41,-28.953 16.25,-39.445 10.85,-10.489 24.42,-15.739 40.72,-15.739 16.36,0 30.03,5.356 40.98,16.055 10.94,10.703 16.42,24.027 16.42,39.977 0,15.527 -5.48,28.586 -16.42,39.183 -10.95,10.594 -24.39,15.895 -40.35,15.895 z m -0.84,19.933 c 22.66,0 41.53,-7.172 56.6,-21.504 15.07,-14.343 22.61,-32.316 22.61,-53.929 0,-21.617 -7.6,-39.504 -22.82,-53.66 -15.2,-14.176 -34.39,-21.25 -57.54,-21.25 -22.1,0 -40.51,7.074 -55.24,21.25 -14.74,14.156 -22.08,31.902 -22.08,53.234 0,21.894 7.41,40.012 22.23,54.355 14.84,14.332 33.58,21.504 56.24,21.504"
         style="fill:#231f20;fill-opacity:1;fill-rule:nonzero;stroke:none"
         id="path34" /><path
         d="m 2194.43,453.223 h 19.93 V 306.656 h -18.04 l -98,112.879 V 306.656 h -19.73 v 146.567 h 17.01 l 98.83,-113.84 v 113.84"
         style="fill:#231f20;fill-opacity:1;fill-rule:nonzero;stroke:none"
         id="path36" /><path
         d="m 2512.5,434.551 h -26.24 V 325.543 h 26.87 c 10.49,0 18.64,0.715 24.45,2.148 5.8,1.434 10.65,3.247 14.51,5.457 3.9,2.2 7.45,4.915 10.67,8.129 10.36,10.489 15.53,23.743 15.53,39.762 0,15.742 -5.33,28.574 -15.95,38.5 -3.92,3.707 -8.41,6.754 -13.48,9.133 -5.07,2.379 -9.89,3.953 -14.42,4.723 -4.55,0.765 -11.87,1.156 -21.94,1.156 z m -47.21,-127.688 v 146.36 h 49.42 c 19.92,0 35.71,-2.989 47.32,-8.969 11.6,-5.977 20.84,-14.777 27.69,-26.387 6.86,-11.613 10.28,-24.277 10.28,-37.98 0,-9.793 -1.88,-19.164 -5.66,-28.121 -3.77,-8.953 -9.17,-16.821 -16.16,-23.606 -7.14,-6.992 -15.42,-12.273 -24.85,-15.84 -5.55,-2.168 -10.6,-3.625 -15.23,-4.355 -4.61,-0.735 -13.43,-1.102 -26.43,-1.102 h -46.38"
         style="fill:#231f20;fill-opacity:1;fill-rule:nonzero;stroke:none"
         id="path38" /><path
         d="m 2986.4,453.223 h 25.48 l -54.14,-69.035 v -77.532 h -21.5 v 77.532 l -54.15,69.035 h 25.34 l 39.23,-50.528 39.74,50.528"
         style="fill:#231f20;fill-opacity:1;fill-rule:nonzero;stroke:none"
         id="path40" /><path
         d="m 3142.11,368.063 -15.93,9.691 c -10.01,6.113 -17.13,12.117 -21.36,18.023 -4.24,5.918 -6.34,12.715 -6.34,20.411 0,11.542 3.99,20.917 12,28.117 8.01,7.203 18.41,10.808 31.22,10.808 12.24,0 23.46,-3.437 33.67,-10.308 v -23.821 c -10.56,10.164 -21.93,15.246 -34.09,15.246 -6.86,0 -12.5,-1.593 -16.9,-4.757 -4.41,-3.172 -6.61,-7.231 -6.61,-12.176 0,-4.391 1.63,-8.5 4.86,-12.336 3.25,-3.828 8.48,-7.852 15.68,-12.07 l 16.02,-9.485 c 17.87,-10.676 26.82,-24.269 26.82,-40.773 0,-11.746 -3.94,-21.297 -11.8,-28.649 -7.88,-7.336 -18.1,-11.007 -30.69,-11.007 -14.49,0 -27.68,4.449 -39.56,13.347 v 26.653 c 11.32,-14.364 24.45,-21.536 39.34,-21.536 6.57,0 12.04,1.832 16.42,5.485 4.36,3.668 6.56,8.246 6.56,13.75 0,8.926 -6.44,17.387 -19.31,25.387"
         style="fill:#231f20;fill-opacity:1;fill-rule:nonzero;stroke:none"
         id="path42" /><path
         d="m 1329.61,454.516 h -13.24 l 0.03,-0.45 h -2.16 l -62.95,-147.41 h 21.56 l 26.96,64.188 21.67,51.254 23.95,-52.606 27.08,-62.387 h 21.57 l -64.47,147.411"
         style="fill:#231f20;fill-opacity:1;fill-rule:nonzero;stroke:none"
         id="path44" /><path
         d="m 2756.02,454.516 h -13.24 l 0.03,-0.45 h -2.16 l -62.95,-147.41 h 21.55 l 26.97,64.188 21.68,51.254 23.94,-52.606 27.09,-62.387 h 21.55 l -64.46,147.411"
         style="fill:#231f20;fill-opacity:1;fill-rule:nonzero;stroke:none"
         id="path46" /></g></g></svg>
