<?xml version="1.0" encoding="utf-8"?>
<!-- Generator: Adobe Illustrator 16.0.0, SVG Export Plug-In . SVG Version: 6.00 Build 0)  -->
<!DOCTYPE svg PUBLIC "-//W3C//DTD SVG 1.1//EN" "http://www.w3.org/Graphics/SVG/1.1/DTD/svg11.dtd">
<svg version="1.1" id="Layer_1" xmlns="http://www.w3.org/2000/svg" xmlns:xlink="http://www.w3.org/1999/xlink" x="0px" y="0px"
	 width="360px" height="360px" viewBox="0 0 360 360" enable-background="new 0 0 360 360" xml:space="preserve">
<g>
	<polygon fill="#2B98AA" points="165.123,192.701 151.603,164.415 146.953,174.48 19.292,174.48 19.292,173.095 146.066,173.095 
		151.582,161.156 165.017,189.266 171.61,172.962 286.482,172.962 291.917,161.633 303.109,188.801 308.89,173.095 338.078,173.095 
		338.078,174.48 309.856,174.48 303.182,192.616 291.821,165.038 287.354,174.349 172.545,174.349 	"/>
</g>
<g>
	<path fill="#FFFFFF" d="M32.285,158.636v2.309c-1.539,0.839-3.315,1.259-5.33,1.259c-1.636,0-3.025-0.329-4.165-0.986
		c-1.14-0.657-2.042-1.563-2.707-2.717c-0.664-1.154-0.997-2.402-0.997-3.745c0-2.134,0.761-3.928,2.282-5.382
		c1.522-1.455,3.398-2.183,5.629-2.183c1.539,0,3.249,0.402,5.13,1.206v2.256c-1.714-0.979-3.389-1.468-5.026-1.468
		c-1.679,0-3.072,0.529-4.181,1.589c-1.108,1.059-1.663,2.387-1.663,3.982c0,1.608,0.546,2.931,1.637,3.965
		c1.091,1.035,2.486,1.553,4.186,1.553C28.858,160.273,30.593,159.728,32.285,158.636z"/>
</g>
<g>
	<path fill="#FFFFFF" d="M43.095,147.379h2.099v14.657h-2.099V147.379z"/>
</g>
<g>
	<path fill="#FFFFFF" d="M65.938,147.379h2.09l-6.197,14.72h-0.476l-6.316-14.72h2.112l4.408,10.292L65.938,147.379z"/>
</g>
<g>
	<path fill="#FFFFFF" d="M77.861,147.379h2.098v14.657h-2.098V147.379z"/>
</g>
<g>
	<path fill="#FFFFFF" d="M91.421,147.379h2.098v12.747h6.6v1.91h-8.698V147.379z"/>
</g>
<g>
	<path fill="#FFFFFF" d="M110.183,147.379h2.099v14.657h-2.099V147.379z"/>
</g>
<g>
	<path fill="#FFFFFF" d="M122.986,147.357h12.633l-9.364,12.811h9.364v1.867h-13.23l9.376-12.811h-8.778V147.357z"/>
</g>
<g>
	<path fill="#FFFFFF" d="M164.972,147.357h12.243v1.868h-5.109v12.811h-2.109v-12.811h-5.024V147.357z"/>
</g>
<g>
	<path fill="#FFFFFF" d="M187.428,147.379h2.099v14.657h-2.099V147.379z"/>
</g>
<g>
	<path fill="#FFFFFF" d="M208.184,147.169c2.266,0,4.152,0.717,5.66,2.15c1.507,1.435,2.261,3.232,2.261,5.393
		c0,2.162-0.76,3.951-2.282,5.366c-1.52,1.417-3.438,2.125-5.754,2.125c-2.21,0-4.051-0.708-5.524-2.125
		c-1.474-1.416-2.207-3.19-2.207-5.324c0-2.189,0.74-4.001,2.223-5.436C204.043,147.886,205.917,147.169,208.184,147.169z
		 M208.268,149.163c-1.679,0-3.059,0.524-4.14,1.574c-1.08,1.049-1.62,2.389-1.62,4.019c0,1.581,0.541,2.896,1.625,3.945
		c1.085,1.049,2.441,1.574,4.071,1.574c1.637,0,3.003-0.536,4.099-1.605c1.094-1.07,1.642-2.403,1.642-3.998
		c0-1.553-0.548-2.859-1.642-3.918C211.207,149.692,209.863,149.163,208.268,149.163z"/>
</g>
<g>
	<path fill="#FFFFFF" d="M238.529,147.379h1.993v14.657h-1.804l-9.801-11.288v11.288h-1.973v-14.657h1.701l9.883,11.384V147.379z"/>
</g>
<g>
	<g>
		<path fill="#FFFFFF" d="M265.615,162.015v-14.636h4.942c1.992,0,3.57,0.299,4.731,0.897c1.16,0.598,2.084,1.478,2.77,2.639
			s1.027,2.428,1.027,3.798c0,0.979-0.188,1.917-0.565,2.812c-0.377,0.896-0.917,1.682-1.616,2.361
			c-0.714,0.699-1.542,1.227-2.485,1.584c-0.555,0.217-1.06,0.362-1.522,0.436c-0.461,0.073-1.343,0.11-2.644,0.11H265.615z
			 M270.337,149.246h-2.624v10.901h2.687c1.049,0,1.864-0.072,2.445-0.215c0.58-0.144,1.064-0.325,1.451-0.546
			c0.39-0.22,0.744-0.491,1.066-0.813c1.036-1.049,1.553-2.374,1.553-3.976c0-1.574-0.532-2.857-1.595-3.85
			c-0.392-0.371-0.841-0.675-1.348-0.913s-0.989-0.396-1.442-0.472C272.075,149.285,271.344,149.246,270.337,149.246z"/>
	</g>
	<g>
		<path fill="#FFFFFF" d="M317.727,147.379h2.548l-5.414,6.903v7.753h-2.15v-7.753l-5.414-6.903h2.533l3.923,5.053L317.727,147.379z
			"/>
	</g>
	<g>
		<path fill="#FFFFFF" d="M333.298,155.895l-1.594-0.969c-1.001-0.611-1.713-1.212-2.136-1.802
			c-0.424-0.592-0.634-1.271-0.634-2.041c0-1.154,0.398-2.092,1.2-2.812c0.801-0.72,1.841-1.081,3.122-1.081
			c1.224,0,2.346,0.344,3.366,1.031v2.382c-1.056-1.016-2.192-1.524-3.408-1.524c-0.687,0-1.25,0.159-1.69,0.476
			c-0.441,0.317-0.661,0.723-0.661,1.218c0,0.439,0.163,0.85,0.486,1.233c0.325,0.383,0.848,0.785,1.567,1.207l1.603,0.949
			c1.787,1.067,2.682,2.427,2.682,4.077c0,1.175-0.394,2.13-1.18,2.865c-0.788,0.734-1.811,1.101-3.069,1.101
			c-1.448,0-2.768-0.445-3.956-1.335v-2.665c1.133,1.436,2.445,2.153,3.935,2.153c0.657,0,1.204-0.183,1.642-0.548
			c0.437-0.367,0.656-0.825,0.656-1.375C335.229,157.541,334.584,156.695,333.298,155.895z"/>
	</g>
</g>
<g>
	<polygon fill="#FFFFFF" points="152.048,147.25 150.724,147.25 150.727,147.294 150.51,147.294 144.215,162.036 146.372,162.036 
		149.067,155.617 151.235,150.491 153.629,155.752 156.338,161.991 158.494,161.991 	"/>
</g>
<g>
	<polygon fill="#FFFFFF" points="294.688,147.25 293.364,147.25 293.367,147.294 293.151,147.294 286.856,162.036 289.012,162.036 
		291.708,155.617 293.876,150.491 296.271,155.752 298.979,161.991 301.135,161.991 	"/>
</g>
</svg>
